<?xml version="1.0" encoding="utf-8"?>
<!-- Generator: Adobe Illustrator 24.0.3, SVG Export Plug-In . SVG Version: 6.00 Build 0)  -->
<svg version="1.1" id="Capa_1" xmlns="http://www.w3.org/2000/svg" xmlns:xlink="http://www.w3.org/1999/xlink" x="0px" y="0px"
	 width="251px" height="73.4px" viewBox="0 0 251 73.4" style="enable-background:new 0 0 251 73.4;" xml:space="preserve">
<style type="text/css">
	.st0{fill:#0252D9;}
	.st1{clip-path:url(#SVGID_2_);}
	.st2{fill:#FFFFFF;}
	.st3{fill:#D21C20;}
	.st4{fill:#444342;}
	.st5{fill:#FFD600;}
	.st6{fill:#D8B600;}
	.st7{fill:#EEECF6;}
	.st8{fill:#ECEAF5;}
	.st9{fill:#F4F4F4;}
</style>
<g>
	<g>
		<path class="st0" d="M56.8,65V66h3v1.6h-3V70h-2.6v-6.7H60V65H56.8z"/>
		<path class="st0" d="M72.9,70v-6.7h5.8V65h-3.3v0.9h3.2v1.6h-3.2v0.9h3.3V70H72.9z"/>
		<path class="st0" d="M95.9,70l-0.3-1.5c0-0.1-0.1-0.3-0.1-0.4c0-0.1-0.1-0.2-0.1-0.3c-0.1-0.1-0.1-0.1-0.2-0.1c-0.1,0-0.2,0-0.4,0
			h-0.5V70h-2.5v-6.7h4.1c0.3,0,0.6,0,0.9,0.1c0.3,0.1,0.6,0.1,0.8,0.3c0.3,0.1,0.5,0.3,0.6,0.6c0.2,0.2,0.2,0.5,0.2,0.9
			c0,0.3,0,0.5-0.1,0.7c-0.1,0.2-0.2,0.4-0.3,0.5c-0.1,0.1-0.3,0.3-0.5,0.3c-0.2,0.1-0.4,0.2-0.6,0.2c0.2,0,0.4,0.1,0.5,0.1
			c0.1,0.1,0.3,0.1,0.4,0.2c0.1,0.1,0.2,0.2,0.3,0.3c0.1,0.1,0.1,0.3,0.2,0.5l0.5,1.9H95.9z M95.8,65.2c-0.1-0.1-0.1-0.1-0.2-0.2
			c-0.1,0-0.2-0.1-0.3-0.1c-0.1,0-0.2,0-0.4,0h-0.7v1.3h0.6c0.1,0,0.3,0,0.4,0c0.1,0,0.2,0,0.3-0.1c0.1,0,0.2-0.1,0.2-0.2
			c0.1-0.1,0.1-0.2,0.1-0.4C95.9,65.4,95.8,65.3,95.8,65.2z"/>
		<path class="st0" d="M115.6,70l-0.3-1.5c0-0.1-0.1-0.3-0.1-0.4c0-0.1-0.1-0.2-0.1-0.3c-0.1-0.1-0.1-0.1-0.2-0.1
			c-0.1,0-0.2,0-0.4,0h-0.5V70h-2.5v-6.7h4.1c0.3,0,0.6,0,0.9,0.1c0.3,0.1,0.6,0.1,0.8,0.3c0.3,0.1,0.5,0.3,0.6,0.6
			c0.2,0.2,0.2,0.5,0.2,0.9c0,0.3,0,0.5-0.1,0.7c-0.1,0.2-0.2,0.4-0.3,0.5c-0.1,0.1-0.3,0.3-0.5,0.3c-0.2,0.1-0.4,0.2-0.6,0.2
			c0.2,0,0.4,0.1,0.5,0.1c0.1,0.1,0.3,0.1,0.4,0.2c0.1,0.1,0.2,0.2,0.3,0.3c0.1,0.1,0.1,0.3,0.2,0.5l0.5,1.9H115.6z M115.5,65.2
			c-0.1-0.1-0.1-0.1-0.2-0.2c-0.1,0-0.2-0.1-0.3-0.1c-0.1,0-0.2,0-0.4,0h-0.7v1.3h0.6c0.1,0,0.3,0,0.4,0c0.1,0,0.2,0,0.3-0.1
			c0.1,0,0.2-0.1,0.2-0.2c0.1-0.1,0.1-0.2,0.1-0.4C115.6,65.4,115.5,65.3,115.5,65.2z"/>
		<path class="st0" d="M131.1,70v-6.7h5.8V65h-3.3v0.9h3.2v1.6h-3.2v0.9h3.3V70H131.1z"/>
		<path class="st0" d="M154.3,65.3V70h-2.6v-4.7h-2.3v-2h7.1v2H154.3z"/>
		<path class="st0" d="M169.3,70v-6.7h5.8V65h-3.3v0.9h3.2v1.6h-3.2v0.9h3.3V70H169.3z"/>
		<path class="st0" d="M192.4,70l-0.3-1.5c0-0.1-0.1-0.3-0.1-0.4c0-0.1-0.1-0.2-0.1-0.3c-0.1-0.1-0.1-0.1-0.2-0.1
			c-0.1,0-0.2,0-0.4,0h-0.5V70h-2.5v-6.7h4.1c0.3,0,0.6,0,0.9,0.1c0.3,0.1,0.6,0.1,0.8,0.3c0.3,0.1,0.5,0.3,0.6,0.6
			c0.2,0.2,0.2,0.5,0.2,0.9c0,0.3,0,0.5-0.1,0.7c-0.1,0.2-0.2,0.4-0.3,0.5c-0.1,0.1-0.3,0.3-0.5,0.3c-0.2,0.1-0.4,0.2-0.6,0.2
			c0.2,0,0.4,0.1,0.5,0.1c0.1,0.1,0.3,0.1,0.4,0.2c0.1,0.1,0.2,0.2,0.3,0.3c0.1,0.1,0.1,0.3,0.2,0.5l0.5,1.9H192.4z M192.2,65.2
			c-0.1-0.1-0.1-0.1-0.2-0.2c-0.1,0-0.2-0.1-0.3-0.1c-0.1,0-0.2,0-0.4,0h-0.7v1.3h0.6c0.1,0,0.3,0,0.4,0c0.1,0,0.2,0,0.3-0.1
			c0.1,0,0.2-0.1,0.2-0.2c0.1-0.1,0.1-0.2,0.1-0.4C192.3,65.4,192.3,65.3,192.2,65.2z"/>
		<path class="st0" d="M207.9,70v-6.7h2.6V70H207.9z"/>
		<path class="st0" d="M228.5,70l-0.4-1.4h-2.2l-0.4,1.4H223l2.3-6.7h3.5l2.4,6.7H228.5z M227,64.8l-0.7,2.2h1.3L227,64.8z"/>
		<path class="st0" d="M249.1,69c-0.2,0.3-0.5,0.5-0.8,0.7c-0.3,0.2-0.7,0.3-1,0.3c-0.4,0.1-0.8,0.1-1.1,0.1c-0.5,0-0.9,0-1.4-0.1
			c-0.5-0.1-0.9-0.1-1.4-0.2l0.1-1.7c0.4,0.2,0.8,0.3,1.2,0.3c0.4,0.1,0.8,0.1,1.2,0.1c0.1,0,0.2,0,0.3,0c0.1,0,0.2,0,0.3-0.1
			c0.1,0,0.2-0.1,0.3-0.1c0.1-0.1,0.1-0.1,0.1-0.3c0-0.1-0.1-0.2-0.2-0.2c-0.1-0.1-0.2-0.1-0.3-0.2c-0.1,0-0.3-0.1-0.4-0.1
			c-0.1,0-0.2-0.1-0.3-0.1l-0.7-0.2c-0.5-0.1-0.9-0.3-1.2-0.7c-0.3-0.3-0.4-0.7-0.4-1.3c0-0.5,0.1-0.8,0.3-1.1
			c0.2-0.3,0.5-0.5,0.9-0.7c0.3-0.2,0.7-0.3,1.1-0.3c0.4-0.1,0.8-0.1,1.2-0.1c0.7,0,1.5,0.1,2.2,0.2l-0.1,1.7
			c-0.3-0.1-0.6-0.2-1-0.3c-0.3-0.1-0.7-0.1-1-0.1c-0.1,0-0.2,0-0.3,0c-0.1,0-0.3,0-0.4,0.1c-0.1,0-0.2,0.1-0.3,0.1
			c-0.1,0.1-0.1,0.1-0.1,0.3c0,0.1,0,0.2,0.1,0.2c0.1,0.1,0.2,0.1,0.3,0.1c0.1,0,0.2,0.1,0.4,0.1c0.1,0,0.2,0,0.3,0.1l0.8,0.2
			c0.3,0.1,0.5,0.1,0.7,0.2c0.2,0.1,0.4,0.2,0.5,0.4c0.1,0.2,0.2,0.3,0.3,0.6c0.1,0.2,0.1,0.5,0.1,0.8
			C249.4,68.4,249.3,68.7,249.1,69z"/>
	</g>
	<g>
		<path class="st0" d="M77,19.9c-1.6,1.5-3.8,2.3-6.6,2.3h-6.9v7.1h-9.2V4.7h16.1c1.3,0,2.5,0.2,3.6,0.6c1.1,0.4,2.1,1,2.9,1.7
			c0.8,0.7,1.4,1.6,1.9,2.7c0.5,1.1,0.7,2.3,0.7,3.6C79.4,16.2,78.6,18.4,77,19.9z M69.6,11.8c-0.3-0.4-0.7-0.7-1.1-0.9
			c-0.5-0.2-1-0.3-1.5-0.4c-0.5-0.1-1.1-0.1-1.6-0.1h-2v6.1h2c0.5,0,1.1,0,1.6-0.1c0.6-0.1,1-0.2,1.5-0.4c0.4-0.2,0.8-0.5,1-1
			c0.3-0.4,0.4-1,0.4-1.7C70,12.7,69.9,12.2,69.6,11.8z"/>
		<path class="st0" d="M105.5,23.9c-0.7,1.3-1.6,2.4-2.7,3.3c-1.1,0.8-2.5,1.5-4,1.9c-1.5,0.4-3.1,0.6-4.8,0.6
			c-1.7,0-3.2-0.2-4.7-0.5c-1.5-0.3-2.8-0.9-3.9-1.7c-1.1-0.8-2-1.8-2.7-3.1c-0.7-1.3-1-2.8-1-4.7V4.7h9.4v14.6c0,0.5,0,1,0.1,1.5
			c0.1,0.5,0.2,0.9,0.4,1.3c0.2,0.4,0.5,0.7,0.9,0.9c0.4,0.2,0.9,0.3,1.5,0.3c0.6,0,1.1-0.1,1.5-0.3c0.4-0.2,0.7-0.5,0.9-0.9
			c0.2-0.4,0.4-0.8,0.5-1.3c0.1-0.5,0.1-1,0.1-1.5V4.7h9.4v14.4C106.5,21,106.2,22.6,105.5,23.9z"/>
		<path class="st0" d="M123.2,29.3l-4.8-17.8v17.8h-8.1V4.7h14l4.8,17.8V4.7h8.1v24.6H123.2z"/>
		<path class="st0" d="M157.4,12v17.3h-9.4V12h-8.3V4.7h26.1V12H157.4z"/>
		<path class="st0" d="M192,22.7c-0.7,1.6-1.6,2.9-2.8,4c-1.2,1-2.6,1.8-4.3,2.3c-1.7,0.5-3.6,0.8-5.6,0.8c-2.1,0-4-0.3-5.7-0.8
			c-1.7-0.5-3.1-1.3-4.3-2.3c-1.2-1-2.1-2.4-2.7-3.9c-0.6-1.6-1-3.5-1-5.7c0-2.1,0.3-4,1-5.6c0.7-1.6,1.6-2.9,2.8-4
			c1.2-1.1,2.6-1.8,4.3-2.4c1.7-0.5,3.5-0.8,5.6-0.8c2.1,0,4,0.3,5.7,0.8c1.7,0.5,3.1,1.3,4.3,2.3c1.2,1,2.1,2.3,2.8,3.9
			c0.7,1.6,1,3.5,1,5.7C193,19.2,192.6,21.1,192,22.7z M183,14.8c-0.1-0.8-0.2-1.5-0.5-2.2c-0.3-0.7-0.6-1.2-1.2-1.7
			c-0.5-0.5-1.2-0.7-2.1-0.7c-0.9,0-1.5,0.2-2,0.7c-0.5,0.5-0.9,1-1.1,1.7c-0.3,0.7-0.4,1.4-0.5,2.2c-0.1,0.8-0.1,1.5-0.1,2.1
			c0,0.6,0,1.4,0.1,2.1c0.1,0.8,0.2,1.5,0.5,2.2c0.3,0.7,0.7,1.3,1.1,1.7c0.5,0.5,1.2,0.7,2,0.7c0.9,0,1.6-0.2,2.1-0.7
			c0.5-0.5,0.9-1,1.2-1.7c0.3-0.7,0.4-1.4,0.5-2.2c0.1-0.8,0.1-1.5,0.1-2.2C183.1,16.4,183.1,15.6,183,14.8z"/>
	</g>
	<g>
		<path class="st0" d="M80,57.3L80,38L75,57.3h-7.8L62.2,38v19.3h-8.1V32.8H68l3.4,14.5l3.2-14.5h13.9v24.6H80z"/>
		<path class="st0" d="M110.5,57.3l-1.6-5.3h-8l-1.6,5.3H90l8.6-24.6h13l8.8,24.6H110.5z M105,38l-2.5,8.1h4.9L105,38z"/>
		<path class="st0" d="M121.9,57.3V32.8h21.3v5.9h-12.1v3.4h11.6V48h-11.6v3.4h12.3v5.9H121.9z"/>
		<path class="st0" d="M166.8,53.6c-0.7,1.1-1.7,1.9-2.8,2.5c-1.2,0.6-2.4,1-3.8,1.3c-1.4,0.2-2.8,0.3-4.1,0.3
			c-1.7,0-3.4-0.1-5.1-0.3c-1.7-0.2-3.4-0.5-5.1-0.9l0.2-6.4c1.4,0.6,2.8,1,4.3,1.2c1.5,0.3,3,0.4,4.5,0.4c0.3,0,0.7,0,1.1,0
			c0.4,0,0.8-0.1,1.2-0.2c0.4-0.1,0.7-0.3,1-0.5c0.3-0.2,0.4-0.5,0.4-1c0-0.3-0.2-0.6-0.6-0.9c-0.4-0.2-0.8-0.4-1.3-0.6
			c-0.5-0.2-1-0.3-1.5-0.4c-0.5-0.1-0.9-0.2-1.1-0.3l-2.5-0.6c-1.9-0.5-3.4-1.3-4.4-2.4c-1-1.1-1.6-2.7-1.6-4.7
			c0-1.7,0.4-3.1,1.3-4.1c0.8-1,1.9-1.8,3.1-2.4c1.3-0.6,2.6-0.9,4.1-1.1c1.5-0.2,2.9-0.3,4.2-0.3c2.7,0,5.4,0.3,8.2,0.8l-0.2,6.3
			c-1.2-0.4-2.3-0.7-3.5-0.9c-1.2-0.2-2.4-0.3-3.6-0.3c-0.3,0-0.7,0-1.2,0c-0.5,0-0.9,0.1-1.4,0.2c-0.5,0.1-0.9,0.3-1.2,0.5
			c-0.3,0.2-0.5,0.5-0.5,1c0,0.3,0.2,0.6,0.5,0.8c0.3,0.2,0.7,0.4,1.1,0.5c0.4,0.1,0.9,0.2,1.3,0.3c0.4,0.1,0.8,0.1,1,0.2l2.8,0.6
			c1,0.2,1.9,0.5,2.7,0.9c0.8,0.4,1.4,0.8,2,1.4c0.5,0.6,0.9,1.2,1.2,2c0.3,0.8,0.4,1.8,0.4,2.9C168,51.2,167.6,52.6,166.8,53.6z"/>
		<path class="st0" d="M186.2,40v17.3h-9.4V40h-8.3v-7.3h26.1V40H186.2z"/>
		<path class="st0" d="M212.5,57.3l-1.2-5.3c-0.1-0.5-0.2-1-0.4-1.3c-0.1-0.4-0.3-0.7-0.5-0.9c-0.2-0.2-0.5-0.4-0.9-0.5
			s-0.8-0.2-1.4-0.2h-2v8.3h-9.2V32.8H212c1.1,0,2.2,0.1,3.4,0.3c1.1,0.2,2.2,0.5,3.1,1c0.9,0.5,1.7,1.2,2.3,2
			c0.6,0.9,0.9,2,0.9,3.3c0,1-0.1,1.8-0.4,2.5c-0.3,0.7-0.7,1.3-1.2,1.8c-0.5,0.5-1.1,0.9-1.9,1.3c-0.7,0.3-1.5,0.6-2.4,0.8
			c0.7,0.1,1.3,0.3,1.9,0.5c0.5,0.2,1,0.5,1.4,0.8c0.4,0.3,0.7,0.7,0.9,1.3c0.2,0.5,0.5,1.1,0.7,1.8l1.8,7.1H212.5z M211.8,39.6
			c-0.2-0.3-0.5-0.5-0.8-0.7c-0.4-0.2-0.8-0.3-1.2-0.3c-0.4,0-0.9-0.1-1.3-0.1H206v4.8h2.3c0.5,0,1,0,1.4-0.1c0.5,0,0.9-0.2,1.2-0.3
			c0.4-0.2,0.6-0.4,0.8-0.8c0.2-0.3,0.3-0.8,0.3-1.3C212.2,40.3,212.1,39.9,211.8,39.6z"/>
		<path class="st0" d="M250,50.7c-0.7,1.6-1.6,2.9-2.8,4c-1.2,1-2.6,1.8-4.3,2.3c-1.7,0.5-3.6,0.8-5.6,0.8c-2.1,0-4-0.3-5.7-0.8
			c-1.7-0.5-3.1-1.3-4.3-2.3c-1.2-1-2.1-2.4-2.7-3.9c-0.6-1.6-1-3.5-1-5.7c0-2.1,0.3-4,1-5.6c0.7-1.6,1.6-2.9,2.8-4
			c1.2-1.1,2.6-1.8,4.3-2.4c1.7-0.5,3.5-0.8,5.6-0.8c2.1,0,4,0.3,5.7,0.8c1.7,0.5,3.1,1.3,4.3,2.3c1.2,1,2.1,2.3,2.8,3.9
			c0.7,1.6,1,3.5,1,5.7C251,47.2,250.7,49.1,250,50.7z M241.1,42.9c-0.1-0.8-0.2-1.5-0.5-2.2c-0.3-0.7-0.6-1.2-1.2-1.7
			c-0.5-0.5-1.2-0.7-2.1-0.7c-0.9,0-1.5,0.2-2,0.7c-0.5,0.5-0.9,1-1.1,1.7c-0.3,0.7-0.4,1.4-0.5,2.2c-0.1,0.8-0.1,1.5-0.1,2.1
			c0,0.6,0,1.4,0.1,2.1c0.1,0.8,0.2,1.5,0.5,2.2c0.3,0.7,0.7,1.3,1.1,1.7c0.5,0.5,1.2,0.7,2,0.7c0.9,0,1.6-0.2,2.1-0.7
			c0.5-0.5,0.9-1,1.2-1.7c0.3-0.7,0.4-1.4,0.5-2.2c0.1-0.8,0.1-1.5,0.1-2.2C241.2,44.4,241.1,43.7,241.1,42.9z"/>
	</g>
	<g>
		<defs>
			<rect id="SVGID_1_" x="195.5" y="9" width="55.5" height="15.4"/>
		</defs>
		<clipPath id="SVGID_2_">
			<use xlink:href="#SVGID_1_"  style="overflow:visible;"/>
		</clipPath>
		<g class="st1">
			<rect x="195.5" y="9" class="st2" width="55.5" height="20.7"/>
			<rect x="196.3" y="9.8" class="st3" width="53.9" height="13.8"/>
			<polygon class="st2" points="209.8,11.3 207.5,21.9 212.7,21.9 213.5,16.1 215.8,21.9 219,21.9 221.4,16 222.1,21.9 227.3,21.9 
				224.8,11.3 219.5,11.3 217.4,16.8 215.4,11.3 			"/>
			<polygon class="st2" points="226.1,11.3 237.3,11.3 237.3,14.8 234.4,14.8 234.4,21.9 229,21.9 229,14.8 226.1,14.8 			"/>
			<polygon class="st2" points="201.1,17.9 197.4,17.9 197.4,15.3 197.9,15.3 197.9,17.4 199,17.4 199,15.4 199.4,15.4 199.4,17.4 
				200.7,17.4 200.7,15.2 201.1,15.2 			"/>
			<g>
				<path class="st2" d="M249.5,22.4c0,0.1-0.1,0.1-0.2,0.1h-0.3v-0.3h0.3C249.4,22.3,249.5,22.3,249.5,22.4 M249.6,22.4
					c0-0.2-0.1-0.3-0.3-0.3h-0.4v0.9h0.1v-0.4h0.2l0.2,0.4h0.2l-0.2-0.4C249.5,22.7,249.6,22.6,249.6,22.4"/>
				<path class="st2" d="M249.2,23.3c-0.4,0-0.7-0.3-0.7-0.7c0-0.4,0.3-0.7,0.7-0.7c0.4,0,0.7,0.3,0.7,0.7
					C249.9,23,249.6,23.3,249.2,23.3 M249.2,22c-0.4,0-0.6,0.3-0.6,0.6c0,0.4,0.3,0.6,0.6,0.6c0.4,0,0.6-0.3,0.6-0.6
					C249.9,22.3,249.6,22,249.2,22"/>
				<path class="st2" d="M237.2,21c1.3,0.4,3.1,0.7,3.1,0.7c1.1,0.2,1.3,0.2,3.1,0.2c1.8,0,3.4-0.7,3.4-0.7c1.7-0.7,2.1-1.9,2.1-1.9
					c0.7-1.4-0.1-2.5-0.1-2.5c-0.6-0.9-2.3-1.3-2.3-1.3c-0.4-0.2-2.9-0.5-2.9-0.5c-0.8-0.1-0.6-0.5-0.6-0.5c0-0.5,1.5-0.4,1.7-0.4
					c0.8,0,2.5,0.8,2.5,0.8l1.5-2.8c-1.4-0.8-3.9-0.9-3.9-0.9c-2.1-0.2-4.1,0.6-4.1,0.6c-3,1-2.9,3.3-2.9,3.3c0,0.7,0.4,1.6,1.2,2
					c1.2,0.7,3,0.9,3.1,0.9c0.9,0,1.4,0.2,1.4,0.2c0.7,0.2,0.2,0.7,0.2,0.7c-0.4,0.2-1.1,0.2-1.1,0.2c-1.8,0.1-3.7-1.1-3.7-1.1
					L237.2,21z"/>
				<path class="st2" d="M199.1,21.3v-1c0-0.2,0-0.4-0.1-0.5c0-0.1-0.1-0.2-0.2-0.3c-0.1-0.1-0.2-0.1-0.3-0.1
					c-0.2,0-0.3,0.1-0.4,0.2c-0.1,0.1-0.2,0.3-0.2,0.6v1.1H199.1z M201.1,21.8h-3.6v-1.6c0-0.3,0-0.6,0.1-0.7
					c0.1-0.2,0.2-0.3,0.3-0.4c0.2-0.1,0.3-0.2,0.5-0.2c0.3,0,0.5,0.1,0.7,0.3c0.2,0.2,0.3,0.4,0.3,0.8c0.1-0.1,0.1-0.2,0.2-0.3
					c0.1-0.1,0.3-0.3,0.5-0.4l1-0.6v0.6l-0.8,0.5c-0.2,0.1-0.4,0.3-0.5,0.3c-0.1,0.1-0.2,0.2-0.2,0.2c0,0.1-0.1,0.1-0.1,0.2
					c0,0.1,0,0.1,0,0.3v0.6h1.6V21.8z"/>
				<path class="st2" d="M200.7,13.9v-0.8c0-0.2,0-0.4-0.1-0.6c0-0.1-0.1-0.2-0.2-0.3c-0.1-0.1-0.3-0.2-0.5-0.3
					c-0.2-0.1-0.4-0.1-0.7-0.1c-0.4,0-0.7,0.1-0.9,0.2c-0.2,0.1-0.3,0.3-0.4,0.5c0,0.1-0.1,0.3-0.1,0.6v0.8H200.7z M201.1,14.4h-3.6
					v-1.2c0-0.3,0-0.5,0.1-0.6c0-0.2,0.1-0.4,0.3-0.5c0.2-0.2,0.4-0.3,0.6-0.4c0.3-0.1,0.5-0.1,0.9-0.1c0.3,0,0.5,0,0.7,0.1
					c0.2,0.1,0.4,0.1,0.5,0.2c0.1,0.1,0.2,0.2,0.3,0.3c0.1,0.1,0.1,0.3,0.2,0.4c0,0.2,0.1,0.4,0.1,0.6V14.4z"/>
				<polygon class="st4" points="197.4,24.7 199.8,24.7 199.8,25.4 198.3,25.4 198.3,26.2 199.7,26.2 199.7,26.9 198.3,26.9 
					198.3,28.5 197.4,28.5 				"/>
				<path class="st4" d="M200.9,27.4c0,0.4,0.4,0.5,0.8,0.5c0.3,0,0.5,0,0.8-0.1l0.1,0.6c-0.3,0.1-0.6,0.2-1,0.2
					c-0.9,0-1.5-0.5-1.5-1.4c0-0.7,0.4-1.5,1.4-1.5c0.9,0,1.2,0.7,1.2,1.4c0,0.1,0,0.3,0,0.3H200.9z M201.9,26.8
					c0-0.2-0.1-0.6-0.5-0.6c-0.4,0-0.5,0.3-0.5,0.6H201.9z"/>
				<path class="st4" d="M203.3,26.6c0-0.4,0-0.7,0-0.9h0.7l0,0.5h0c0.1-0.4,0.5-0.6,0.7-0.6c0.1,0,0.1,0,0.2,0v0.8
					c-0.1,0-0.1,0-0.2,0c-0.3,0-0.5,0.2-0.6,0.4c0,0.1,0,0.1,0,0.2v1.4h-0.9V26.6z"/>
				<path class="st4" d="M205.4,26.6c0-0.4,0-0.7,0-0.9h0.7l0,0.5h0c0.1-0.4,0.5-0.6,0.7-0.6c0.1,0,0.1,0,0.2,0v0.8
					c-0.1,0-0.1,0-0.2,0c-0.3,0-0.5,0.2-0.6,0.4c0,0.1,0,0.1,0,0.2v1.4h-0.9V26.6z"/>
				<path class="st4" d="M208.2,27.4c0,0.4,0.4,0.5,0.8,0.5c0.3,0,0.5,0,0.8-0.1l0.1,0.6c-0.3,0.1-0.6,0.2-1,0.2
					c-0.9,0-1.5-0.5-1.5-1.4c0-0.7,0.4-1.5,1.4-1.5c0.9,0,1.2,0.7,1.2,1.4c0,0.1,0,0.3,0,0.3H208.2z M209.2,26.8
					c0-0.2-0.1-0.6-0.5-0.6c-0.4,0-0.5,0.3-0.5,0.6H209.2z"/>
				<path class="st4" d="M211.5,24.9v0.8h0.6v0.6h-0.6v1c0,0.3,0.1,0.5,0.3,0.5c0.1,0,0.2,0,0.3,0l0,0.7c-0.1,0-0.3,0.1-0.6,0.1
					c-0.3,0-0.5-0.1-0.6-0.2c-0.2-0.2-0.2-0.4-0.2-0.8v-1.1h-0.4v-0.6h0.4v-0.6L211.5,24.9z"/>
				<path class="st4" d="M213.2,27.4c0,0.4,0.4,0.5,0.8,0.5c0.3,0,0.5,0,0.8-0.1l0.1,0.6c-0.3,0.1-0.6,0.2-1,0.2
					c-0.9,0-1.5-0.5-1.5-1.4c0-0.7,0.4-1.5,1.4-1.5c0.9,0,1.2,0.7,1.2,1.4c0,0.1,0,0.3,0,0.3H213.2z M214.3,26.8
					c0-0.2-0.1-0.6-0.5-0.6c-0.4,0-0.5,0.3-0.5,0.6H214.3z"/>
				<path class="st4" d="M215.6,26.6c0-0.4,0-0.7,0-0.9h0.7l0,0.5h0c0.1-0.4,0.5-0.6,0.7-0.6c0.1,0,0.1,0,0.2,0v0.8
					c-0.1,0-0.1,0-0.2,0c-0.3,0-0.5,0.2-0.6,0.4c0,0.1,0,0.1,0,0.2v1.4h-0.9V26.6z"/>
				<path class="st4" d="M220.4,27.1c0,1-0.7,1.5-1.5,1.5c-0.8,0-1.4-0.5-1.4-1.4c0-0.9,0.6-1.5,1.5-1.5
					C219.9,25.6,220.4,26.2,220.4,27.1 M218.4,27.1c0,0.5,0.2,0.8,0.6,0.8c0.3,0,0.5-0.3,0.5-0.8c0-0.4-0.2-0.8-0.5-0.8
					C218.6,26.2,218.4,26.7,218.4,27.1"/>
				<path class="st4" d="M221,27.7c0.2,0.1,0.5,0.2,0.7,0.2c0.3,0,0.4-0.1,0.4-0.2c0-0.1-0.1-0.2-0.4-0.3c-0.6-0.2-0.8-0.5-0.8-0.8
					c0-0.5,0.4-0.9,1.1-0.9c0.3,0,0.6,0.1,0.8,0.2l-0.2,0.6c-0.1-0.1-0.4-0.2-0.6-0.2c-0.2,0-0.3,0.1-0.3,0.2c0,0.1,0.1,0.2,0.4,0.3
					c0.5,0.2,0.7,0.4,0.8,0.9c0,0.5-0.4,0.9-1.2,0.9c-0.4,0-0.7-0.1-0.9-0.2L221,27.7z"/>
				<path class="st4" d="M227.3,24.4v3.2c0,0.3,0,0.6,0,0.8h-0.8l0-0.4h0c-0.2,0.3-0.5,0.5-0.9,0.5c-0.7,0-1.2-0.6-1.2-1.4
					c0-0.9,0.6-1.5,1.2-1.5c0.3,0,0.6,0.1,0.7,0.3h0v-1.5H227.3z M226.4,26.9c0,0,0-0.1,0-0.2c0-0.2-0.2-0.4-0.5-0.4
					c-0.4,0-0.6,0.4-0.6,0.8c0,0.5,0.2,0.8,0.6,0.8c0.2,0,0.4-0.2,0.5-0.4c0-0.1,0-0.1,0-0.2V26.9z"/>
				<path class="st4" d="M228.6,27.4c0,0.4,0.4,0.5,0.8,0.5c0.3,0,0.5,0,0.8-0.1l0.1,0.6c-0.3,0.1-0.6,0.2-1,0.2
					c-0.9,0-1.5-0.5-1.5-1.4c0-0.7,0.4-1.5,1.4-1.5c0.9,0,1.2,0.7,1.2,1.4c0,0.1,0,0.3,0,0.3H228.6z M229.6,26.8
					c0-0.2-0.1-0.6-0.5-0.6c-0.4,0-0.5,0.3-0.5,0.6H229.6z"/>
				<path class="st4" d="M232.7,25.7l0.4,1.3c0.1,0.2,0.1,0.5,0.2,0.7h0c0-0.2,0.1-0.4,0.2-0.7l0.4-1.3h0.9l-1,2.8h-0.9l-1-2.8
					H232.7z"/>
				<path class="st4" d="M235.7,27.4c0,0.4,0.4,0.5,0.8,0.5c0.3,0,0.5,0,0.8-0.1l0.1,0.6c-0.3,0.1-0.6,0.2-1,0.2
					c-0.9,0-1.5-0.5-1.5-1.4c0-0.7,0.4-1.5,1.4-1.5c0.9,0,1.2,0.7,1.2,1.4c0,0.1,0,0.3,0,0.3H235.7z M236.7,26.8
					c0-0.2-0.1-0.6-0.5-0.6c-0.4,0-0.5,0.3-0.5,0.6H236.7z"/>
				<path class="st4" d="M238,26.6c0-0.4,0-0.7,0-0.9h0.7l0,0.5h0c0.1-0.4,0.5-0.6,0.7-0.6c0.1,0,0.1,0,0.2,0v0.8
					c-0.1,0-0.1,0-0.2,0c-0.3,0-0.5,0.2-0.6,0.4c0,0.1,0,0.1,0,0.2v1.4H238V26.6z"/>
				<path class="st4" d="M242.8,24.4v3.2c0,0.3,0,0.6,0,0.8h-0.8l0-0.4h0c-0.2,0.3-0.5,0.5-0.9,0.5c-0.7,0-1.2-0.6-1.2-1.4
					c0-0.9,0.6-1.5,1.2-1.5c0.3,0,0.6,0.1,0.7,0.3h0v-1.5H242.8z M241.9,26.9c0,0,0-0.1,0-0.2c-0.1-0.2-0.2-0.4-0.5-0.4
					c-0.4,0-0.6,0.4-0.6,0.8c0,0.5,0.2,0.8,0.6,0.8c0.2,0,0.4-0.2,0.5-0.4c0-0.1,0-0.1,0-0.2V26.9z"/>
				<path class="st4" d="M245.1,28.5l0-0.3h0c-0.2,0.2-0.5,0.3-0.8,0.3c-0.6,0-0.9-0.4-0.9-0.9c0-0.7,0.6-1.1,1.6-1.1v0
					c0-0.1-0.1-0.4-0.5-0.4c-0.3,0-0.6,0.1-0.8,0.2l-0.2-0.6c0.2-0.1,0.6-0.2,1.1-0.2c0.9,0,1.2,0.5,1.2,1.2v1c0,0.3,0,0.5,0,0.7
					H245.1z M245,27.2c-0.5,0-0.8,0.1-0.8,0.4c0,0.2,0.1,0.3,0.3,0.3c0.2,0,0.4-0.1,0.4-0.3c0,0,0-0.1,0-0.1V27.2z"/>
				<path class="st4" d="M249.2,24.4v3.2c0,0.3,0,0.6,0,0.8h-0.8l0-0.4h0c-0.2,0.3-0.5,0.5-0.9,0.5c-0.7,0-1.2-0.6-1.2-1.4
					c0-0.9,0.6-1.5,1.2-1.5c0.3,0,0.6,0.1,0.7,0.3h0v-1.5H249.2z M248.3,26.9c0,0,0-0.1,0-0.2c-0.1-0.2-0.2-0.4-0.5-0.4
					c-0.4,0-0.6,0.4-0.6,0.8c0,0.5,0.2,0.8,0.6,0.8c0.3,0,0.4-0.2,0.5-0.4c0-0.1,0-0.1,0-0.2V26.9z"/>
			</g>
		</g>
	</g>
	<g>
		<g>
			<path class="st2" d="M46.7,39.2c-1.4-2-3-3.8-4.8-5.4c-0.4-0.4-0.9-0.7-1.3-1.1c0.3-0.6,0.6-1.2,0.9-1.8c1.2-2.8,1.7-5.7,1.4-8.7
				c-0.1-1.4-0.4-2.7-1-3.9c-0.9-1.8-2.3-3.2-3.8-4.5c-0.1-0.1-0.2-0.2-0.2-0.2c0.9-0.9,1.8-1.6,2.6-2.5c1-1.1,1.7-2.4,1.5-4
				c-0.1-0.9-0.5-1.5-1.4-1.8c-0.9-0.3-1.8-0.3-2.7-0.1c-2.1,0.4-4,1.2-5.9,2.1c-0.9,0.4-0.9,0.4-1.6-0.3c-1.9-2-4.1-3.6-6.9-4.2
				c-0.3-0.1-0.7-0.1-1-0.2c-1.8-1-3.8-1.5-5.9-1.2C15,1.5,13.4,2,12.2,3.4c-0.9,1.1-2,2-3.1,2.9c-4.6,3.9-6.6,8.9-5.5,15
				C4,23.8,5,26.1,6.2,28.4c0.1,0.1,0.1,0.2,0.2,0.3c0.2,0.8,0.4,1.5,0.7,2.2c1.2,2.4,2.9,4.3,4.9,6.1c0.2,0.2,0.3,0.4,0.4,0.6
				c0.4,1.2,0.6,2.4,0.6,3.6c0.1,2-0.1,4-0.4,6c-0.1,0.3-0.2,0.4-0.5,0.5c-1.7,0.5-3.2,1.2-4.7,2.1C7,50,6.8,50.3,6.5,50.7
				c0.4,0.2,0.6,0.2,0.9,0.4c0.4,0.2,0.7,0.1,1,0c0.9-0.4,1.9-0.6,3-0.6c0,0.1-0.1,0.2-0.1,0.3c-1.5,3.5-3,7-4.4,10.5
				c-0.1,0.3-0.1,0.5,0.1,0.8c0.7,0.8,1.6,0.9,2.6,0.8c0.4,0,0.5-0.2,0.6-0.5c0.5-2,1-4,1.5-5.9c0.1-0.6,0.3-1.1,0.5-1.7
				c0.3,0.3,0.5,0.7,0.8,0.9c0.3,0.2,0.3,0.5,0.3,0.8c-0.2,1.1-0.3,2.2-0.4,3.3c-0.3,1.9-0.6,3.9-1,5.8c-0.1,0.7-0.4,1.3-0.6,2
				c1.1,0,2.3,0,3.4,0c0.3,0.7,0.4,0.7,0.9,0c0-0.1,0.1-0.1,0.1-0.2c0.9-1.2,1.7-2.4,2.6-3.6c0.6-0.9,1.4-1.7,2.4-2.2
				c0.9-0.5,1.8-0.9,2.7-1.4c0.6-0.3,1.1-0.5,1.8-0.4c0.4,0.1,0.9,0.1,1.3,0.1c1.2,0,2.3,0,3.5,0c0.5,2.6,0.2,5.2,0,7.8
				c0.3-0.1,0.5-0.1,0.7-0.2c0.5,0,1,0,1.5,0c0.4,0,0.8,0,1.2,0.1c0.3,0,0.5,0,0.7-0.3c0.2-0.4,0.5-0.9,0.8-1.3
				c1.1-1.6,2.2-3.2,3.2-4.9c2.2-3.9,4.1-7.9,5.9-12c0.1-0.2,0.1-0.4,0.1-0.5c-0.1-0.7-0.2-1.3-0.3-2c-0.1-0.7-0.4-1.4-0.6-2.1
				c1.4-0.1,2.2-0.9,2.7-2.1c0.3-0.7,0.5-1.4,0.9-2C46.9,39.7,46.9,39.5,46.7,39.2z"/>
			<path class="st2" d="M15.1,69c-0.1,0-0.1,0-0.2,0c-0.4,0-0.7-0.3-0.9-0.5H9.7l0.4-1.5c0.1-0.2,0.1-0.4,0.2-0.6
				c0.1-0.4,0.3-0.8,0.3-1.2c0.1-0.6,0.2-1.3,0.3-1.9c-0.3,0.4-0.8,0.7-1.3,0.7c-1,0.1-2.4,0.1-3.6-1.2c-0.5-0.6-0.7-1.3-0.3-2
				C7,57.9,8.2,55,9.4,52.2l0.2-0.4c-0.2,0.1-0.4,0.1-0.6,0.2c-0.7,0.3-1.4,0.3-2.1,0C6.8,52,6.6,52,6.4,51.9
				c-0.1,0-0.2-0.1-0.4-0.1l-1.6-0.6l1.2-1.3c0.1-0.1,0.1-0.2,0.2-0.2c0.2-0.2,0.5-0.6,0.8-0.8c1.6-1,3.1-1.7,4.7-2.1
				c0.3-1.8,0.4-3.7,0.4-5.4c-0.1-1.3-0.2-2.3-0.6-3.2c0,0,0-0.1-0.1-0.1c-2.4-2.1-4-4.2-5.2-6.5c-0.3-0.6-0.4-1.2-0.6-1.7
				c-0.1-0.2-0.1-0.5-0.2-0.7c0,0,0-0.1-0.1-0.1l0,0c-1.5-2.7-2.3-5.1-2.7-7.5C1.3,15,3.3,9.6,8.3,5.3C8.5,5.2,8.6,5.1,8.8,5
				c0.9-0.8,1.8-1.5,2.5-2.4c1.6-1.9,3.8-2.3,5.3-2.5c2.2-0.3,4.3,0.2,6.6,1.4c0,0,0.2,0,0.3,0.1c0.1,0,0.2,0,0.3,0.1
				c2.8,0.6,5.2,2.1,7.5,4.5c0,0,0.1,0.1,0.1,0.1c0,0,0.1,0,0.1-0.1l0,0c1.8-0.8,3.9-1.8,6.2-2.2c1-0.2,2.2-0.3,3.4,0.2
				c0.8,0.3,1.9,1.1,2.1,2.8c0.1,1.1,0.1,2.8-1.8,4.9c-0.5,0.6-1.1,1.2-1.7,1.7c1.5,1.4,2.6,2.7,3.3,4.2c0.7,1.3,1,2.7,1.2,4.4
				c0.3,3.3-0.3,6.4-1.5,9.3c-0.2,0.3-0.3,0.7-0.5,1c0.2,0.2,0.4,0.3,0.6,0.5c1.7,1.5,3.3,3.3,5,5.6l0,0c0.5,0.7,0.5,1.4,0.2,2.1
				c-0.2,0.4-0.4,0.8-0.5,1.2c-0.1,0.2-0.2,0.5-0.3,0.7c-0.5,1.3-1.3,2.1-2.3,2.5c0.1,0.3,0.2,0.7,0.2,1c0.1,0.7,0.2,1.4,0.3,2.1
				c0.1,0.5-0.1,0.9-0.2,1.2c-1.6,3.6-3.6,7.9-6,12.1c-0.7,1.2-1.4,2.3-2.2,3.4c-0.3,0.5-0.7,1-1,1.6c-0.3,0.4-0.5,0.8-0.8,1.2
				c-0.2,0.4-0.8,1-1.9,0.9c-0.3,0-0.7-0.1-1.1-0.1c-0.5,0-1,0-1.4,0c0,0-0.1,0-0.2,0c-0.1,0-0.2,0.1-0.3,0.1l-1.6,0.4l0.2-1.7
				c0.2-2,0.4-4.2,0.2-6.4c-0.8,0-1.7,0-2.5,0l0,0c-0.5,0-1,0-1.6-0.1c-0.2-0.1-0.4,0-0.9,0.2c-0.8,0.5-1.7,0.9-2.7,1.5
				c-0.7,0.4-1.3,0.9-2,1.8c-0.6,0.8-1.2,1.7-1.8,2.5c-0.3,0.4-0.5,0.7-0.8,1.1c-0.1,0.1-0.1,0.2-0.2,0.2C16.3,68.5,15.8,69,15.1,69
				z M30.7,68.4C30.7,68.4,30.7,68.4,30.7,68.4C30.7,68.4,30.7,68.4,30.7,68.4z M31.4,66c0.3,0,0.6,0,0.9,0c0.4,0,0.7,0,1,0.1
				c0.2-0.4,0.4-0.7,0.6-1c0.3-0.5,0.7-1.1,1.1-1.6c0.7-1.1,1.4-2.1,2.1-3.2c2.4-4.1,4.3-8.3,5.8-11.9c-0.1-0.7-0.2-1.3-0.3-1.8
				c-0.1-0.4-0.2-0.9-0.4-1.4c-0.1-0.2-0.1-0.4-0.2-0.7l-0.4-1.4l1.5-0.1c0.6,0,1.2-0.3,1.6-1.4c0.1-0.2,0.2-0.4,0.3-0.7
				c0.2-0.4,0.3-0.8,0.5-1.2c-1.5-2.1-3-3.7-4.5-5c-0.3-0.2-0.6-0.5-0.9-0.7c-0.1-0.1-0.3-0.2-0.4-0.3L39.1,33l0.4-0.9
				c0.1-0.2,0.2-0.4,0.3-0.6c0.2-0.4,0.4-0.8,0.6-1.1c1.1-2.5,1.6-5.2,1.3-8.1c-0.1-1.4-0.4-2.5-0.9-3.5c-0.7-1.4-1.8-2.7-3.5-4.1
				c-0.1-0.1-0.2-0.2-0.2-0.2l0,0l-0.9-0.8l0.9-0.9c0.3-0.3,0.6-0.5,0.8-0.8c0.6-0.6,1.2-1.1,1.7-1.7c1-1.1,1.4-2,1.2-3.1
				c-0.1-0.6-0.3-0.7-0.6-0.9c-0.5-0.2-1.1-0.2-2.1,0c-2,0.4-3.9,1.2-5.6,2l0,0c-0.6,0.3-1,0.5-1.6,0.4c-0.6-0.1-0.9-0.5-1.4-1
				c-2-2.1-4-3.3-6.2-3.8c-0.1,0-0.1,0-0.2,0c-0.3-0.1-0.7-0.1-1.1-0.3c-1.8-1-3.5-1.3-5.1-1.1c-1.8,0.2-2.9,0.7-3.8,1.7
				c-0.9,1-1.9,1.8-2.8,2.6C10.1,6.9,10,7,9.8,7.2C7.7,9,6.1,11.1,5.3,13.4c-0.9,2.3-1.1,4.9-0.6,7.7c0.4,2.1,1.2,4.3,2.5,6.8l0,0
				c0.1,0.1,0.2,0.3,0.2,0.5c0.1,0.3,0.2,0.5,0.2,0.8c0.1,0.5,0.3,0.9,0.4,1.3c1,2,2.5,3.8,4.6,5.7c0.3,0.3,0.6,0.7,0.7,1.1
				c0.4,1.1,0.7,2.4,0.7,3.9c0.1,2.1-0.1,4.2-0.5,6.3c-0.1,0.8-0.6,1.3-1.3,1.5c-0.3,0.1-0.7,0.2-1,0.3c0,0,0,0,0,0c0,0,0.1,0,0.1,0
				l1.7,0l-0.6,1.6c0,0,0,0.1,0,0.1c0,0.1-0.1,0.2-0.1,0.2l-0.5,1.2l1.2,1.4c0.1,0.1,0.2,0.2,0.3,0.3c0.1,0.2,0.3,0.3,0.4,0.4
				c0.6,0.5,0.8,1.1,0.7,1.9c-0.1,0.5-0.1,0.9-0.2,1.4c-0.1,0.6-0.2,1.3-0.3,2c-0.4,2.3-0.7,4.1-1,5.8c0,0.2-0.1,0.4-0.1,0.6h2.2
				c0.2-0.3,0.4-0.5,0.5-0.8c0.6-0.8,1.2-1.7,1.8-2.5c0.9-1.2,1.8-2,2.8-2.5c1-0.5,1.9-1,2.6-1.4c0.6-0.4,1.5-0.8,2.7-0.5
				c0.3,0.1,0.6,0.1,1,0.1l0,0c0.8,0,1.6,0,2.5,0c0.3,0,0.7,0,1,0h1l0.2,1C31.6,61.7,31.5,64,31.4,66C31.3,66,31.3,66,31.4,66z
				 M8.1,61.3c0.2,0.2,0.5,0.3,1.1,0.2c0.4-1.6,0.8-3.1,1.2-4.6l0.2-0.9c0.1-0.4,0.2-0.8,0.3-1.2c0-0.2,0.1-0.3,0.1-0.5
				C10.1,56.6,9.1,59,8.1,61.3z"/>
		</g>
		<g>
			<path class="st2" d="M13.9,68.3c-0.3-0.2-0.7-0.1-1.1-0.1c-0.7,0-1.5,0.1-2.2-0.1c-0.7-0.1-1.4-0.3-2.1-0.5
				c-1.3-0.3-2.6-0.7-4-0.5c-1.4,0.2-2.5,0.9-2.9,2.3c0,0.1-0.1,0.3-0.2,0.4c-0.4,0.6-0.3,0.8,0.2,1.2c1.2,0.7,2.5,1.3,3.9,1.2
				c1.1-0.1,2.2-0.1,3.2-0.2c0.5,0,0.7-0.2,1-0.6c0.3-0.5,0.8-0.9,1.2-1.4c0.1,0.5,0.1,0.8,0.2,1.1c0.1,0.2,0.3,0.5,0.5,0.6
				c0.9,0.3,1.9,0.3,2.9,0.1c0.4-0.1,0.5-0.3,0.5-0.6c0-0.8-0.4-1.4-0.7-2.1C14.4,68.8,14.2,68.5,13.9,68.3z"/>
			<path class="st2" d="M5.4,73.4c-1.7,0-3.1-0.7-4.3-1.4c-0.2-0.1-0.8-0.5-1-1.2c-0.2-0.7,0.2-1.3,0.4-1.6c0,0,0,0,0.1-0.1
				C1,67.3,2.3,66.3,4.3,66c1.5-0.2,2.9,0.1,4.1,0.4c0.1,0,0.3,0.1,0.4,0.1c0.7,0.2,1.4,0.3,2,0.5c0.5,0.1,1.1,0.1,1.7,0l0.2,0
				c0.1,0,0.1,0,0.2,0c0.4,0,1-0.1,1.6,0.2c0.7,0.4,1,1.1,1.1,1.4c0.1,0.1,0.1,0.3,0.2,0.4c0.3,0.6,0.6,1.3,0.6,2.2
				c-0.1,1.3-0.9,1.6-1.5,1.8c-1.2,0.2-2.3,0.2-3.5-0.1c-0.3-0.1-0.6-0.3-0.8-0.5c-0.5,0.6-1.1,0.8-1.8,0.9c-0.7,0-1.4,0.1-2,0.1
				c-0.4,0-0.8,0-1.2,0.1C5.6,73.4,5.5,73.4,5.4,73.4z M2.6,70.1c0.9,0.5,1.9,0.9,3,0.9c0.4,0,0.8,0,1.2-0.1c0.7,0,1.4-0.1,2.1-0.1
				c0,0,0,0,0,0c0,0,0,0,0.1-0.1c0.3-0.4,0.6-0.7,0.9-1c0.1-0.1,0.3-0.3,0.4-0.4l0,0c-0.6-0.1-1.3-0.3-2-0.5c-0.1,0-0.3-0.1-0.4-0.1
				c-1.1-0.3-2.1-0.6-3.1-0.4c-1,0.2-1.6,0.5-2,1.5C2.7,69.9,2.7,70,2.6,70.1z M12.4,70.7c0.5,0.1,1.1,0.2,1.6,0.1
				c-0.1-0.2-0.2-0.4-0.3-0.7c-0.1-0.2-0.2-0.3-0.2-0.5c-0.1-0.1-0.1-0.2-0.1-0.2c0,0,0,0,0,0c-0.1,0-0.2,0-0.3,0
				c-0.1,0-0.1,0-0.2,0l-0.2,0c-0.2,0-0.4,0-0.5,0l0.1,0.4c0,0.2,0.1,0.3,0.1,0.5C12.3,70.5,12.4,70.6,12.4,70.7z M13.3,69.3
				C13.3,69.3,13.3,69.3,13.3,69.3C13.3,69.3,13.3,69.3,13.3,69.3z"/>
		</g>
		<g>
			<path class="st2" d="M43.2,69.1c-0.2-0.3-0.3-0.7-0.6-0.9c-1.1-1.1-2.6-1.2-4-1c-1.5,0.2-2.9,0.7-4.3,1c-0.4,0.1-0.7,0.1-1.1,0.1
				c-0.2,0-0.4-0.1-0.6-0.1c-0.5,0-1,0-1.4,0.1c-0.1,0-0.2,0.1-0.3,0.2c-0.3,0.5-0.6,1-0.8,1.6c-0.2,0.4-0.2,0.9-0.3,1.4
				c0,0.3,0.1,0.4,0.4,0.5c0.9,0.2,1.7,0.2,2.6,0c0.7-0.2,1-0.4,1-1.2c0-0.1,0-0.3,0-0.5c0.2,0.2,0.4,0.3,0.5,0.4
				c0.3,0.4,0.6,0.8,1,1.1c0.1,0.1,0.3,0.3,0.5,0.3c1.3,0.1,2.6,0.2,4,0.2c1.4,0,2.6-0.6,3.8-1.4c0.3-0.2,0.3-0.5,0.1-0.8
				C43.6,69.7,43.4,69.4,43.2,69.1z"/>
			<path class="st2" d="M39.5,73.4c-1,0-2-0.1-3-0.1c-0.2,0-0.5,0-0.7-0.1c-0.7,0-1.1-0.5-1.3-0.7c0,0-0.1-0.1-0.1-0.1
				C34,72.7,33.6,72.9,33,73c-1.1,0.2-2.1,0.2-3.1,0c-0.9-0.2-1.4-0.9-1.3-1.8c0-0.1,0-0.1,0-0.2c0.1-0.4,0.1-1,0.3-1.5
				c0.2-0.5,0.5-1,0.7-1.4c0.1-0.1,0.1-0.2,0.2-0.3c0.2-0.4,0.7-0.7,1.2-0.8c0.5,0,1-0.1,1.5-0.1c0.3,0,0.5,0.1,0.6,0.1
				c0,0,0,0,0.1,0c0.3,0,0.6,0,0.8-0.1c0.5-0.1,1-0.3,1.5-0.4c0.9-0.3,1.9-0.5,2.9-0.7c2.2-0.3,3.8,0.1,5,1.3c0.3,0.3,0.5,0.7,0.7,1
				c0,0.1,0.1,0.1,0.1,0.2l0,0c0.2,0.3,0.4,0.6,0.5,1c0.3,0.7,0.3,1.7-0.6,2.3c-1,0.7-2.5,1.6-4.4,1.6
				C39.7,73.4,39.6,73.4,39.5,73.4z M36.1,70.8c0.2,0,0.4,0,0.5,0c1.1,0.1,2.1,0.1,3.1,0.1c0.8,0,1.7-0.3,2.7-0.9
				c-0.1-0.2-0.2-0.3-0.2-0.4l0,0c0-0.1-0.1-0.2-0.1-0.3c-0.1-0.2-0.2-0.4-0.3-0.4c-0.7-0.7-1.6-0.9-3-0.7c-0.9,0.1-1.8,0.4-2.7,0.6
				c-0.5,0.1-1,0.3-1.4,0.4c0,0,0,0,0.1,0.1c0.2,0.1,0.3,0.2,0.5,0.4c0.2,0.2,0.3,0.4,0.4,0.5C35.8,70.5,36,70.7,36.1,70.8z
				 M31,70.8c0.5,0,1,0,1.5-0.1c0,0,0.1,0,0.1,0c0,0,0,0,0-0.1c0,0,0-0.1,0-0.2c0-0.1,0-0.2,0-0.3v-0.8c0,0,0,0-0.1,0c0,0,0,0-0.1,0
				c-0.3,0-0.6,0-0.9,0c-0.2,0.4-0.4,0.7-0.5,1C31.1,70.5,31.1,70.7,31,70.8z"/>
		</g>
		<path class="st5" d="M12.9,4.2c1.2-1,2.6-1.7,4.2-1.9C19.2,2,21.2,2.6,23,3.7c2.2,1.3,4,3,5.4,5.1c0,0.1,0.1,0.1,0.1,0.2
			c-0.7,0.5-1.3,1-2,1.4c-0.4-0.5-0.8-1.1-1.2-1.6c-1.3-1.6-2.7-3-4.5-4c-2.5-1.4-5.1-1.7-7.8-0.7C13,4.2,13,4.2,12.9,4.2z"/>
		<path class="st6" d="M12.9,4.2c-0.1,0.1,6.4-4.1,14.7,5.5c1.4,1.6-1.4,1.9-5.2-3.6c-3.6-2.6-8.1-2-9.3-1.9
			C13,4.2,12.9,4.2,12.9,4.2z"/>
		<path class="st5" d="M28,10.5c2.3-1.2,4.7-2.4,7-3.5c1.3-0.6,2.7-1,4.1-1.1c1.6-0.1,2.4,1,1.9,2.6c-0.4,1.2-1.2,2.2-2.1,3
			c-0.6,0.5-1.2,0.9-1.7,1.4c-0.2,0.2-0.4,0.2-0.6,0c-2.5-1.4-5.1-2.4-7.9-2.4c-0.2,0-0.4,0-0.6,0C28.1,10.6,28,10.5,28,10.5z"/>
		<path class="st6" d="M37.3,6.2c0,0,5.7,0.9-2.7,5.8c2,1,2.3,1.9,2.3,1.9s6.4-4.4,4.2-7.9C38,5.1,37.3,6.2,37.3,6.2z"/>
		<path class="st5" d="M8.1,28.6c-1.1-1.3-1.6-2.9-2.1-4.4c-0.7-2.3-1-4.6-0.9-6.9c0.2-3.4,1.2-6.6,3.7-9c2.1-2.1,4.6-3.3,7.5-3.7
			c1-0.2,2,0.2,3,0.6c2.6,1.2,4.6,3.1,5.9,5.6c0.1,0.2,0.2,0.3,0.2,0.5c-2.6,1.4-4.8,3.3-7,5.3C14.5,20,11,24,8.2,28.5
			C8.2,28.5,8.1,28.5,8.1,28.6z"/>
		<path class="st6" d="M9.6,26.4c0,0-7.5-16.8,4.6-21.4c-9.7,2.7-13,12.5-5.8,24.8C9,27.2,9.6,26.4,9.6,26.4z"/>
		<path class="st5" d="M16.3,52.2c-1.2-1-1.1-2.1-0.8-3.4c0.4-1.3,1.4-2,2.6-2.2c-0.3-0.3-1.1-0.4-1.7-0.2c-0.1,0-0.2,0.1-0.3,0.1
			c-0.6,0.6-1.4,0.5-2.2,0.6c0.6-3,0.7-5.9,0.1-8.9c0.9,0.3,1.7,0.6,2.6,1c-0.5,0.5-1.2,0.7-1.5,1.5c0.6-0.2,1-0.5,1.5-0.6
			c1.2-0.4,2.5-0.9,3.7-1.2c1-0.2,2.1-0.2,3,0.5c0.3,0.2,0.4,0.4,0.2,0.8c-0.2,0.5-0.3,1.1-0.4,1.6c-0.1,0.6,0.2,0.8,0.8,1
			c-0.4,1.2-0.3,2.4,0.2,3.7c-1-0.1-1.9-0.1-2.8-0.2c-0.7-0.1-1.4-0.3-2.1-0.4c-0.2,0-0.3,0.1-0.5,0.1c0.1,0.1,0.2,0.3,0.4,0.3
			c1.7,0.3,3.3,0.7,5,1c1.3,0.2,2.6,0.3,4,0.3c1.5,0,3-0.3,4.4-0.4c0.7-0.1,1.2-0.7,1.6-1.2c0.7-0.9,1.4-1.8,2.1-2.7
			c0.1-0.1,0.4-0.2,0.5-0.2c1.5,0.2,2.9,0.4,4.4,0.6c0.1,0,0.2,0.1,0.3,0.2c0.5,1.2,1,2.5,1.1,3.8c0,0.3-0.1,0.7-0.3,0.9
			c-1.1,1.6-2.6,2.8-4.5,3.5c-3.3,1.1-6.6,2.1-10.1,2.3c-3.9,0.2-7.8-0.2-11.4-1.8c-0.9-0.4-1.8-1-2.7-1.4c-0.3-0.2-0.2-0.4-0.1-0.6
			c0-0.1,0.3-0.2,0.4-0.1c0.4,0,0.8,0.2,1,0.6C15,51.7,15.6,52,16.3,52.2z M20.7,49.3c0-0.1,0-0.2,0-0.4c-0.1-0.7-0.3-1.4-1-1.7
			c-0.7-0.4-1.4-0.2-2,0.3c-1.1,0.8-1.8,2.5-1.4,3.8c0.4,1.3,1.5,1.9,2.7,1.1C20.1,51.7,20.6,50.6,20.7,49.3z"/>
		<path class="st6" d="M29.1,47.3c0,0,2.1,1.2,2.2,2.2c0.1,1-1.9,5.5,0.9,5.1c2.6-1,8.1-3.1,8.9-3.4s4.3-4.9,0.9-7.9l-5.1-1.1
			C36.8,42.2,33.4,48.3,29.1,47.3z"/>
		<path class="st2" d="M13,34.8c1.3-0.6,1.7-1.2,1.6-2.2c-0.3,0.3-0.7,0.6-1,0.9c-0.4,0.3-0.8,0.4-1.3,0.3c-0.7-0.2-1.4-0.5-1.8-1.1
			c-0.8-1.1-1.3-2.3-1.4-3.6c0-0.3,0.1-0.6,0.3-0.9c0.2-0.3,0.5-0.6,0.6-1c0.2-0.5,0.6-0.5,1-0.3c0.7,0.3,1.3,0.6,1.9,0.9
			c0.5,0.2,0.5,0.2,0.7-0.3c0.8-2.2,1.5-4.3,2.3-6.5c0.1-0.2,0.2-0.3,0.3-0.5c3.4-3.2,6.9-6.2,10.8-8.7c0.1-0.1,0.3-0.2,0.5-0.2
			c3.4,0.2,6.6,1,9.5,2.9c2.7,1.8,4,4.3,4.3,7.5c0.4,4.7-1.2,8.7-4.2,12.3C36,35.6,35,37,33.7,38.2c-0.5,0.5-1.1,0.9-1.6,1.4
			c-0.2,0.2-0.3,0.2-0.6,0c-0.8-0.5-1.6-1.1-2.4-1.6c-1.3-0.8-2.5-0.8-3.6,0c-0.4,0.3-0.9,0.7-1.3,1.1c-0.2,0.2-0.3,0.2-0.6,0
			c-0.7-0.4-1.3-0.8-2-1c-1-0.3-2,0.1-2.9,0.4c-0.3,0.1-0.7,0.2-1,0.4c-0.4,0.2-0.7,0.2-1.1,0c-0.7-0.4-1.5-0.9-2.2-1.3
			c-0.4-0.3-0.8-0.7-0.9-1.2C13.4,35.9,13.2,35.4,13,34.8z M32.6,24.3c0.4,0,0.6,0,0.8,0c0.2,0,0.4,0.1,0.5,0.2
			c0.7,0.7,1.4,1.4,2.1,2c0.4,0.4,0.8,0.8,1.3,1.2c-1.6,1.5-3.3,2.8-5.2,3.7c-0.1,0.1-0.2,0.1-0.3,0c-1.2-0.2-2.4-0.5-3.5-1.2
			c-0.6-0.4-1.2-0.9-1.6-1.5c0.4-0.4,0.7-0.8,0.7-1.5c-0.4,0.4-0.8,0.8-1.2,1.1c-0.4,0.3-0.9,0.4-1.4,0.6c0.1,0.1,0.3,0.2,0.4,0.2
			c0.9-0.1,1.2,0.5,1.8,1c1.6,1.3,3.4,1.7,5.4,1.7c0.1,0,0.3-0.1,0.4-0.1c0.9-0.6,1.8-1.2,2.7-1.8c0.8-0.6,1.6-1.2,2.1-2.1
			c0.2-0.3,0.2-0.5-0.1-0.7c-0.7-0.6-1.5-1.2-2.1-1.8c-0.3-0.2-0.4-0.6-0.6-0.9c0.8-0.3,1.6-0.5,2.3-0.7c0.7-0.3,1.5-0.6,1.8-1.4
			c0.6-1.6,0.8-3.3,0.4-5c-0.2-0.9-1-1.4-1.9-1.1c-0.7,0.2-1.4,0.7-2.1,1c-0.2,0.1-0.4,0.2-0.7,0.1c-0.7-0.2-1.2-0.1-1.4,0.3
			c0.3,0.1,0.7,0.2,1.1,0.3c-1.2,1-2.2,1.9-3.3,2.9c0,0.1,0.1,0.1,0.1,0.2c0.3-0.2,0.6-0.4,0.9-0.6c1.4-1.1,2.8-2.2,4.3-3.3
			c0.4-0.3,1-0.4,1.5-0.5c0.7-0.1,0.8,0,1,0.7c0.5,2.3-0.1,5.1-3.2,6C34.6,23.9,33.7,24.1,32.6,24.3z M21.6,18.4c0.1,0,0.2,0,0.2,0
			c1.4-1,2.8-2,4.2-3.1c0.1,0,0.2-0.2,0.2-0.2c-0.2-0.4-0.3-0.8-0.5-1.1c-0.3-0.3-0.5,0-0.8,0.2c-1.2,1-2.1,2.3-3,3.6
			C21.7,18,21.7,18.2,21.6,18.4z M29.6,13.8c1.2,0.4,2.4,0.9,3.8,1.3c-0.2-0.3-0.3-0.5-0.4-0.7c-0.6-0.4-1.2-0.9-1.8-1.3
			c-0.4-0.3-1-0.4-1.5-0.6c-0.1,0-0.3,0-0.4,0.1c-0.1,0.1,0,0.2,0,0.4C29.4,13.4,29.5,13.6,29.6,13.8z M27.5,22.1
			c0.1,0,0.1,0,0.2-0.1c-0.2-0.5-0.3-0.9-0.5-1.4c-0.4-0.9-0.6-0.9-1.3-0.4c-0.7,0.5-1.3,1-1.9,1.6c-0.3,0.2-0.4,0.5-0.7,0.8
			c0.9-0.8,1.9-1.4,3-2c0.3-0.2,0.4-0.1,0.6,0.2C27,21.2,27.2,21.6,27.5,22.1z"/>
		<path class="st7" d="M33.6,12.8c0,0,14.3,3.4-1.5,26.8c4.1-3.8,9.4-9,10.4-17C41.7,17.7,39.5,13.9,33.6,12.8z"/>
		<path class="st2" d="M37.3,41.9c1-1.2,1.9-2.4,2.8-3.5c0.2-0.2,0.4-0.4,0.2-0.7C40,37.4,40,36.9,39.4,37c-0.1,0-0.2,0-0.4,0
			c0.2-0.2,0.3-0.4,0.5-0.5c0.5-0.3,1-0.7,1.6-1c0.6-0.3,0.6-0.3,1.1,0.2c1.1,1.2,2.1,2.4,3.2,3.6c0.2,0.2,0.3,0.5,0.1,0.8
			c-0.3,0.6-0.6,1.2-1,1.8c-0.1,0.2-0.4,0.4-0.6,0.4c-2.1,0.2-4.1,0.2-6.2-0.2C37.5,42,37.4,42,37.3,41.9z"/>
		<path class="st7" d="M42.5,43.3c0,0,1.1-7-2.7-7.5c1.6-1,2-1.3,2-1.3l4.3,5.2C46.2,39.7,44.9,43.7,42.5,43.3z"/>
		<path class="st2" d="M27.1,42.3c-0.1-0.1-0.3-0.1-0.4-0.2c0.4-0.5,0.8-1,1.2-1.5c-0.8,0.2-1.4,0.7-1.9,1.3
			c-0.4,0.5-0.8,0.5-1.5,0.3c0.5-0.7,0.9-1.3,1.3-2c0,0-0.1-0.1-0.1-0.1c-0.8,0.4-1.1,1.3-1.7,1.9c0,0-0.1,0-0.1,0
			c0.1-0.3,0.1-0.6,0.2-0.8c0.5-1.4,1.5-2.5,2.8-3.3c0.2-0.1,0.5-0.2,0.6-0.1c1.1,0.7,2.2,1.3,3.3,2c-0.9,0.9-1.8,1.8-2.6,2.7
			c0,0.1,0.1,0.1,0.1,0.2c0.2-0.1,0.3-0.2,0.5-0.3c2.2-1.4,4.4-2.8,6.8-3.8c1.2-0.5,2.5-1,3.8-1.1c0.3,0,0.5,0,0.5,0.3
			c0,0.1-0.1,0.3-0.2,0.5c-1.3,1.5-2.6,2.9-3.9,4.4c-1,1.2-1.9,2.4-2.8,3.6c-0.1,0.2-0.3,0.3-0.5,0.3c-1.3,0.2-2.6,0.4-3.9,0.5
			c-0.9,0.1-1.9,0-2.8,0c-0.5,0-0.7-0.2-0.9-0.6c-0.3-0.9-0.5-1.8-0.2-2.7c0.1-0.3,0.3-0.5,0.7-0.6C25.9,42.9,26.5,42.8,27.1,42.3z"
			/>
		<path class="st8" d="M24,45.1c0,0,6.8-0.4,7.5-0.9c0.8-0.4,8.1-7.3,8.2-7c0.1,0.3,0.1,0.3,0.1,0.3s-4.4,7.7-7.6,9.4
			C29.6,47.5,23.7,47.7,24,45.1z"/>
		<path class="st0" d="M11.5,50.4c-1.1,0-2.1,0.2-3,0.6c-0.4,0.2-0.7,0.2-1,0c-0.2-0.1-0.5-0.2-0.9-0.4c0.3-0.3,0.5-0.6,0.8-0.8
			c1.5-0.9,3-1.6,4.7-2.1c0.3-0.1,0.4-0.2,0.5-0.5c0.4-2,0.5-4,0.4-6c-0.1-1.2-0.2-2.4-0.6-3.6c-0.1-0.2-0.2-0.4-0.4-0.6
			c-2-1.8-3.7-3.7-4.9-6.1c-0.3-0.7-0.5-1.5-0.7-2.2c0-0.1-0.1-0.2-0.2-0.3c-1.2-2.3-2.2-4.6-2.6-7.1c-1-6.1,0.9-11,5.5-15
			c1.1-0.9,2.2-1.8,3.1-2.9c1.2-1.4,2.8-1.9,4.5-2.1c2.1-0.3,4,0.3,5.9,1.2c0.3,0.1,0.6,0.2,1,0.2c2.8,0.6,5,2.1,6.9,4.2
			c0.7,0.7,0.7,0.7,1.6,0.3C34,6.3,35.9,5.5,38,5.1c0.9-0.2,1.8-0.2,2.7,0.1c0.8,0.3,1.3,0.9,1.4,1.8c0.2,1.6-0.5,2.9-1.5,4
			c-0.8,0.9-1.7,1.7-2.6,2.5c0,0,0.1,0.1,0.2,0.2c1.5,1.3,2.9,2.7,3.8,4.5c0.6,1.2,0.9,2.6,1,3.9c0.2,3-0.2,5.9-1.4,8.7
			c-0.3,0.6-0.6,1.2-0.9,1.8c0.4,0.4,0.9,0.7,1.3,1.1c1.8,1.6,3.4,3.5,4.8,5.4c0.2,0.3,0.2,0.5,0.1,0.8c-0.3,0.7-0.6,1.4-0.9,2
			c-0.5,1.2-1.3,2.1-2.7,2.1c0.2,0.7,0.4,1.4,0.6,2.1c0.1,0.7,0.2,1.3,0.3,2c0,0.2,0,0.4-0.1,0.5c-1.8,4.1-3.7,8.1-5.9,12
			c-1,1.7-2.1,3.3-3.2,4.9c-0.3,0.4-0.6,0.9-0.8,1.3c-0.2,0.3-0.4,0.3-0.7,0.3c-0.4-0.1-0.8-0.1-1.2-0.1c-0.5,0-1,0-1.5,0
			c-0.2,0-0.4,0.1-0.7,0.2c0.3-2.5,0.5-5.1,0-7.8c-1.2,0-2.3,0-3.5,0c-0.4,0-0.9,0-1.3-0.1c-0.7-0.2-1.2,0-1.8,0.4
			c-0.9,0.5-1.8,1-2.7,1.4c-1,0.5-1.7,1.3-2.4,2.2c-0.9,1.2-1.7,2.4-2.6,3.6c0,0.1-0.1,0.1-0.1,0.2c-0.5,0.7-0.6,0.7-0.9,0
			c-1.1,0-2.3,0-3.4,0c0.2-0.6,0.4-1.3,0.6-2c0.4-1.9,0.7-3.8,1-5.8c0.2-1.1,0.3-2.2,0.4-3.3c0-0.3,0-0.6-0.3-0.8
			c-0.3-0.2-0.5-0.6-0.8-0.9c-0.2,0.6-0.3,1.2-0.5,1.7c-0.5,2-1,4-1.5,5.9c-0.1,0.3-0.2,0.5-0.6,0.5c-1,0.1-1.9,0-2.6-0.8
			c-0.2-0.2-0.3-0.4-0.1-0.8c1.5-3.5,3-7,4.4-10.5C11.5,50.6,11.5,50.5,11.5,50.4z M13,34.8c0.2,0.5,0.4,1.1,0.5,1.6
			c0.1,0.5,0.5,0.9,0.9,1.2c0.7,0.5,1.5,0.9,2.2,1.3c0.4,0.2,0.7,0.3,1.1,0c0.3-0.2,0.6-0.3,1-0.4c1-0.3,1.9-0.7,2.9-0.4
			c0.7,0.2,1.4,0.6,2,1c0.2,0.1,0.4,0.2,0.6,0c0.4-0.4,0.8-0.7,1.3-1.1c1.1-0.8,2.3-0.8,3.6,0c0.8,0.5,1.6,1,2.4,1.6
			c0.2,0.1,0.4,0.1,0.6,0c0.5-0.5,1.1-0.9,1.6-1.4c1.3-1.2,2.3-2.5,3.5-3.9c3-3.6,4.6-7.6,4.2-12.3c-0.3-3.2-1.6-5.7-4.3-7.5
			c-2.9-1.9-6.1-2.7-9.5-2.9c-0.2,0-0.3,0.1-0.5,0.2c-3.9,2.5-7.5,5.5-10.8,8.7C16.1,20.6,16,20.8,16,21c-0.8,2.2-1.6,4.3-2.3,6.5
			c-0.2,0.5-0.2,0.5-0.7,0.3c-0.6-0.3-1.3-0.6-1.9-0.9c-0.4-0.2-0.8-0.1-1,0.3c-0.2,0.3-0.5,0.6-0.6,1c-0.1,0.3-0.3,0.6-0.3,0.9
			c0,1.4,0.6,2.5,1.4,3.6c0.4,0.6,1.1,1,1.8,1.1c0.5,0.1,0.9,0,1.3-0.3c0.3-0.3,0.7-0.6,1-0.9C14.7,33.6,14.3,34.2,13,34.8z
			 M8.1,28.6c0.1-0.1,0.1-0.1,0.1-0.2C11,24,14.5,20,18.4,16.5c2.2-2,4.4-3.8,7-5.3c-0.1-0.1-0.2-0.3-0.2-0.5
			c-1.3-2.5-3.3-4.4-5.9-5.6c-0.9-0.4-1.9-0.8-3-0.6C13.4,5,10.9,6.2,8.8,8.2c-2.5,2.5-3.5,5.6-3.7,9c-0.2,2.4,0.2,4.7,0.9,6.9
			C6.4,25.8,7,27.3,8.1,28.6z M16.3,52.2c-0.7-0.2-1.3-0.6-1.5-1.1c-0.2-0.5-0.5-0.6-1-0.6c-0.1,0-0.4,0-0.4,0.1
			c-0.1,0.2-0.2,0.5,0.1,0.6c0.9,0.5,1.8,1,2.7,1.4c3.6,1.5,7.5,2,11.4,1.8c3.5-0.2,6.8-1.2,10.1-2.3c1.9-0.6,3.4-1.8,4.5-3.5
			c0.2-0.3,0.3-0.6,0.3-0.9c-0.1-1.4-0.6-2.6-1.1-3.8c0-0.1-0.2-0.2-0.3-0.2c-1.5-0.2-2.9-0.4-4.4-0.6c-0.2,0-0.4,0.1-0.5,0.2
			c-0.7,0.9-1.4,1.8-2.1,2.7c-0.4,0.5-0.9,1.1-1.6,1.2c-1.5,0.2-3,0.4-4.4,0.4c-1.3,0-2.7-0.1-4-0.3c-1.7-0.2-3.3-0.6-5-1
			c-0.1,0-0.2-0.2-0.4-0.3c0.2,0,0.3-0.1,0.5-0.1c0.7,0.1,1.4,0.3,2.1,0.4c0.9,0.1,1.8,0.1,2.8,0.2c-0.5-1.3-0.7-2.5-0.2-3.7
			c-0.6-0.1-0.8-0.4-0.8-1c0-0.5,0.2-1.1,0.4-1.6c0.2-0.4,0.1-0.5-0.2-0.8c-0.9-0.7-1.9-0.8-3-0.5c-1.3,0.3-2.5,0.8-3.7,1.2
			c-0.5,0.2-0.9,0.4-1.5,0.6c0.3-0.8,1-1.1,1.5-1.5c-0.9-0.3-1.7-0.6-2.6-1c0.6,3,0.5,5.9-0.1,8.9c0.8-0.1,1.6-0.1,2.2-0.6
			c0.1-0.1,0.2-0.1,0.3-0.1c0.5-0.2,1.4-0.1,1.7,0.2c-1.3,0.1-2.2,0.9-2.6,2.2C15.1,50.1,15.1,51.3,16.3,52.2z M27.1,42.3
			c-0.6,0.4-1.2,0.5-1.8,0.6c-0.4,0-0.6,0.2-0.7,0.6c-0.3,0.9-0.1,1.8,0.2,2.7c0.2,0.4,0.4,0.6,0.9,0.6c0.9,0,1.9,0.1,2.8,0
			c1.3-0.1,2.6-0.3,3.9-0.5c0.2,0,0.4-0.2,0.5-0.3c1-1.2,1.8-2.4,2.8-3.6c1.3-1.5,2.6-2.9,3.9-4.4c0.1-0.1,0.2-0.3,0.2-0.5
			c0-0.3-0.3-0.3-0.5-0.3c-1.4,0.1-2.6,0.6-3.8,1.1c-2.4,1.1-4.6,2.4-6.8,3.8c-0.1,0.1-0.3,0.2-0.5,0.3c0-0.1-0.1-0.1-0.1-0.2
			c0.8-0.9,1.7-1.7,2.6-2.7c-1.1-0.7-2.2-1.4-3.3-2c-0.1-0.1-0.4,0-0.6,0.1c-1.3,0.8-2.3,1.9-2.8,3.3c-0.1,0.3-0.1,0.6-0.2,0.8
			c0,0,0.1,0,0.1,0c0.6-0.6,0.9-1.5,1.7-1.9c0,0,0.1,0.1,0.1,0.1c-0.4,0.6-0.8,1.3-1.3,2c0.6,0.2,1.1,0.2,1.5-0.3
			c0.5-0.6,1.1-1,1.9-1.3c-0.4,0.5-0.8,1-1.2,1.5C26.8,42.2,26.9,42.3,27.1,42.3z M28,10.5c0,0,0,0.1,0.1,0.1c0.2,0,0.4,0,0.6,0
			c2.9,0,5.5,0.9,7.9,2.4c0.2,0.1,0.4,0.2,0.6,0c0.6-0.5,1.2-0.9,1.7-1.4c0.9-0.8,1.7-1.8,2.1-3c0.5-1.7-0.3-2.7-1.9-2.6
			C37.7,6,36.3,6.3,35,7C32.7,8.1,30.4,9.3,28,10.5z M37.3,41.9c0.2,0.1,0.3,0.1,0.3,0.1c2,0.4,4.1,0.4,6.2,0.2
			c0.2,0,0.5-0.2,0.6-0.4c0.4-0.6,0.7-1.2,1-1.8c0.2-0.3,0.1-0.5-0.1-0.8c-1.1-1.2-2.1-2.4-3.2-3.6c-0.5-0.5-0.5-0.5-1.1-0.2
			c-0.5,0.3-1,0.6-1.6,1c-0.2,0.1-0.3,0.3-0.5,0.5c0.2,0,0.3,0,0.4,0c0.6-0.1,0.7,0.4,0.9,0.7c0.2,0.3-0.1,0.5-0.2,0.7
			C39.1,39.5,38.2,40.7,37.3,41.9z M12.9,4.2c0.1,0,0.1,0,0.1,0c2.7-1,5.3-0.7,7.8,0.7c1.8,1,3.2,2.4,4.5,4c0.4,0.5,0.8,1,1.2,1.6
			c0.7-0.5,1.3-1,2-1.4c-0.1-0.1-0.1-0.2-0.1-0.2C26.9,6.7,25.1,5,23,3.7c-1.8-1.1-3.7-1.7-5.9-1.4C15.5,2.5,14.2,3.2,12.9,4.2z
			 M39.7,33.5c-0.7,0.7-1.5,1.4-2.2,2.1c-0.2,0.2-0.3,0.4-0.5,0.6c-0.3,0.4-0.2,0.7-0.1,1.2c0.3-0.1,0.6-0.1,0.9-0.2
			c0.1,0,0.3-0.1,0.4-0.3c0.4-0.4,0.7-0.9,1.1-1.2c0.5-0.4,1.1-0.7,1.8-1.1C40.6,34.2,40.1,33.8,39.7,33.5z M38.5,52.5
			c-1.1,0.4-2.1,0.7-3.2,1c-0.1,0-0.3,0.1-0.3,0.2c-0.2,0.5-0.3,1-0.5,1.5c1.2-0.1,2.2-0.3,3.1-0.9c0.1,0,0.2-0.1,0.2-0.2
			C38.1,53.7,38.3,53.1,38.5,52.5z M26.1,5C26.1,5.1,26.1,5.1,26.1,5c1.1,1.2,2.3,2.3,3.5,3.5c0.2-0.1,0.3-0.3,0.6-0.4
			C28.8,7,27.5,6,26.1,5z"/>
		<path class="st0" d="M11.2,70.1c-0.5,0.5-0.9,0.9-1.2,1.4C9.7,71.8,9.4,72,9,72c-1.1,0-2.2,0.1-3.2,0.2C4.2,72.3,3,71.7,1.8,71
			c-0.6-0.3-0.6-0.6-0.2-1.2c0.1-0.1,0.1-0.3,0.2-0.4c0.4-1.4,1.5-2,2.9-2.3c1.4-0.2,2.7,0.2,4,0.5c0.7,0.2,1.4,0.3,2.1,0.5
			c0.7,0.2,1.5,0.1,2.2,0.1c0.4,0,0.8-0.1,1.1,0.1c0.3,0.2,0.5,0.5,0.6,0.8c0.3,0.7,0.7,1.3,0.7,2.1c0,0.4-0.1,0.6-0.5,0.6
			c-1,0.2-1.9,0.2-2.9-0.1c-0.2-0.1-0.4-0.3-0.5-0.6C11.3,70.9,11.3,70.6,11.2,70.1z"/>
		<path class="st0" d="M33.9,70.1c0,0.3,0,0.4,0,0.5c-0.1,0.7-0.3,1-1,1.2c-0.9,0.2-1.7,0.2-2.6,0c-0.3-0.1-0.4-0.2-0.4-0.5
			c0.1-0.5,0.1-0.9,0.3-1.4c0.2-0.6,0.5-1.1,0.8-1.6c0-0.1,0.2-0.2,0.3-0.2c0.5,0,1-0.1,1.4-0.1c0.2,0,0.4,0.1,0.6,0.1
			c0.4,0,0.8,0,1.1-0.1c1.4-0.3,2.9-0.8,4.3-1c1.4-0.2,2.9-0.1,4,1c0.3,0.3,0.4,0.6,0.6,0.9c0.2,0.3,0.3,0.6,0.5,0.9
			c0.1,0.3,0.2,0.6-0.1,0.8c-1.1,0.8-2.4,1.4-3.8,1.4c-1.3,0-2.6-0.1-4-0.2c-0.2,0-0.4-0.2-0.5-0.3c-0.3-0.4-0.6-0.8-1-1.1
			C34.3,70.4,34.2,70.3,33.9,70.1z"/>
		<path class="st5" d="M39.7,33.5c0.4,0.3,0.9,0.7,1.4,1.1c-0.6,0.4-1.2,0.7-1.8,1.1c-0.4,0.3-0.7,0.8-1.1,1.2
			c-0.1,0.1-0.2,0.2-0.4,0.3c-0.3,0.1-0.6,0.1-0.9,0.2c-0.2-0.4-0.2-0.8,0.1-1.2c0.2-0.2,0.3-0.4,0.5-0.6
			C38.2,34.9,39,34.2,39.7,33.5z"/>
		<path class="st9" d="M38.5,52.5c-0.2,0.6-0.4,1.1-0.6,1.7c0,0.1-0.1,0.1-0.2,0.2c-0.9,0.5-2,0.8-3.1,0.9c0.2-0.5,0.3-1,0.5-1.5
			c0-0.1,0.2-0.2,0.3-0.2C36.4,53.2,37.4,52.9,38.5,52.5z"/>
		<path class="st5" d="M26.1,5c1.3,1,2.7,2,4.1,3c-0.3,0.2-0.5,0.3-0.6,0.4C28.4,7.4,27.2,6.2,26.1,5C26.1,5.1,26.1,5.1,26.1,5z"/>
		<path class="st0" d="M32.6,24.3c1.1-0.3,2-0.5,2.9-0.8c3.1-0.9,3.7-3.7,3.2-6c-0.2-0.7-0.3-0.8-1-0.7c-0.5,0.1-1.1,0.2-1.5,0.5
			c-1.5,1-2.9,2.2-4.3,3.3c-0.3,0.2-0.6,0.4-0.9,0.6c0-0.1-0.1-0.1-0.1-0.2c1.1-0.9,2.1-1.9,3.3-2.9c-0.4-0.1-0.7-0.2-1.1-0.3
			c0.3-0.4,0.8-0.6,1.4-0.3c0.3,0.1,0.5,0,0.7-0.1c0.7-0.4,1.4-0.8,2.1-1c0.9-0.3,1.6,0.2,1.9,1.1c0.4,1.7,0.2,3.4-0.4,5
			c-0.3,0.8-1.1,1.1-1.8,1.4c-0.7,0.3-1.4,0.5-2.3,0.7c0.2,0.3,0.3,0.7,0.6,0.9c0.7,0.6,1.4,1.2,2.1,1.8c0.3,0.2,0.3,0.4,0.1,0.7
			c-0.6,0.9-1.3,1.5-2.1,2.1c-0.9,0.6-1.8,1.2-2.7,1.8c-0.1,0.1-0.2,0.1-0.4,0.1c-2,0-3.9-0.4-5.4-1.7c-0.6-0.5-0.9-1.1-1.8-1
			c-0.1,0-0.3-0.1-0.4-0.2c0.5-0.2,1-0.3,1.4-0.6c0.4-0.3,0.7-0.7,1.2-1.1c0.1,0.7-0.3,1.1-0.7,1.5c0.4,0.6,0.9,1.1,1.6,1.5
			c1.1,0.7,2.3,1,3.5,1.2c0.1,0,0.2,0,0.3,0c1.9-1,3.6-2.2,5.2-3.7c-0.5-0.4-0.9-0.8-1.3-1.2c-0.7-0.7-1.4-1.4-2.1-2
			c-0.1-0.1-0.3-0.2-0.5-0.2C33.2,24.4,33,24.4,32.6,24.3z"/>
		<path class="st0" d="M21.6,18.4c0.1-0.2,0.1-0.4,0.2-0.5c0.9-1.3,1.8-2.6,3-3.6c0.2-0.2,0.5-0.5,0.8-0.2c0.3,0.3,0.4,0.7,0.5,1.1
			c0,0-0.1,0.1-0.2,0.2c-1.4,1-2.8,2.1-4.2,3.1C21.8,18.4,21.8,18.4,21.6,18.4z"/>
		<path class="st0" d="M29.6,13.8c-0.1-0.2-0.2-0.4-0.3-0.7c0-0.1-0.1-0.3,0-0.4c0.1-0.1,0.3-0.1,0.4-0.1c0.5,0.2,1,0.3,1.5,0.6
			c0.6,0.4,1.2,0.8,1.8,1.3c0.2,0.1,0.2,0.4,0.4,0.7C32,14.7,30.8,14.3,29.6,13.8z"/>
		<path class="st0" d="M27.5,22.1c-0.2-0.4-0.5-0.8-0.7-1.3c-0.2-0.3-0.3-0.3-0.6-0.2c-1.1,0.6-2.1,1.2-3,2c0.2-0.3,0.4-0.6,0.7-0.8
			c0.6-0.6,1.2-1.1,1.9-1.6c0.8-0.5,1-0.5,1.3,0.4c0.2,0.4,0.3,0.9,0.5,1.4C27.6,22,27.5,22,27.5,22.1z"/>
		<path class="st0" d="M20.7,49.3c-0.1,1.3-0.5,2.4-1.7,3.1c-1.2,0.7-2.4,0.2-2.7-1.1c-0.3-1.3,0.3-3.1,1.4-3.8
			c0.6-0.4,1.3-0.6,2-0.3c0.7,0.4,0.9,1,1,1.7C20.7,49,20.7,49.1,20.7,49.3z"/>
	</g>
</g>
</svg>
